<svg xmlns="http://www.w3.org/2000/svg" xmlns:xlink="http://www.w3.org/1999/xlink" contentStyleType="text/css" height="164px" preserveAspectRatio="none" style="width:306px;height:164px;background:#FFFFFF;" version="1.1" viewBox="0 0 306 164" width="306px" zoomAndPan="magnify"><defs/><g><!--class io.github.kimbongjune.geoserverclient.dto.importer.ImportTask--><a href="ImportTask.html" target="_top" title="ImportTask.html" xlink:actuate="onRequest" xlink:href="ImportTask.html" xlink:show="new" xlink:title="ImportTask.html" xlink:type="simple"><g id="elem_io.github.kimbongjune.geoserverclient.dto.importer.ImportTask"><rect codeLine="13" fill="#F1F1F1" height="127.4219" id="io.github.kimbongjune.geoserverclient.dto.importer.ImportTask" rx="2.5" ry="2.5" style="stroke:#181818;stroke-width:0.5;" width="293.2373" x="6" y="12"/><ellipse cx="21.8556" cy="30.9688" fill="#ADD1B2" rx="11" ry="11" style="stroke:#181818;stroke-width:1.0;"/><path d="M24.8244,36.6094 Q24.2462,36.9063 23.6056,37.0469 Q22.965,37.2031 22.2619,37.2031 Q19.7619,37.2031 18.4337,35.5625 Q17.1212,33.9063 17.1212,30.7813 Q17.1212,27.6563 18.4337,26 Q19.7619,24.3438 22.2619,24.3438 Q22.965,24.3438 23.6056,24.5 Q24.2619,24.6563 24.8244,24.9531 L24.8244,27.6719 Q24.1994,27.0938 23.6056,26.8281 Q23.0119,26.5469 22.3869,26.5469 Q21.0431,26.5469 20.3556,27.625 Q19.6681,28.6875 19.6681,30.7813 Q19.6681,32.875 20.3556,33.9531 Q21.0431,35.0156 22.3869,35.0156 Q23.0119,35.0156 23.6056,34.75 Q24.1994,34.4688 24.8244,33.8906 L24.8244,36.6094 Z " fill="#000000"/><text fill="#000000" font-family="sans-serif" font-size="14" lengthAdjust="spacing" textLength="78.9961" x="126.2157" y="29.9951">ImportTask</text><text fill="#000000" font-family="sans-serif" font-size="10" lengthAdjust="spacing" textLength="259.3359" x="36.0458" y="42.5791">io.github.kimbongjune.geoserverclient.dto.importer</text><line style="stroke:#181818;stroke-width:0.5;" x1="7" x2="298.2373" y1="49.9375" y2="49.9375"/><ellipse cx="17" cy="63.5859" fill="#84BE84" rx="3" ry="3" style="stroke:#038048;stroke-width:1.0;"/><text fill="#000000" font-family="sans-serif" font-size="14" lengthAdjust="spacing" textLength="86.3105" x="26" y="66.9326">getId(): long</text><ellipse cx="17" cy="79.8828" fill="#84BE84" rx="3" ry="3" style="stroke:#038048;stroke-width:1.0;"/><text fill="#000000" font-family="sans-serif" font-size="14" lengthAdjust="spacing" textLength="114.6865" x="26" y="83.2295">getHref(): String</text><ellipse cx="17" cy="96.1797" fill="#84BE84" rx="3" ry="3" style="stroke:#038048;stroke-width:1.0;"/><text fill="#000000" font-family="sans-serif" font-size="14" lengthAdjust="spacing" textLength="163.6592" x="26" y="99.5264">getState(): ImportState</text><ellipse cx="17" cy="112.4766" fill="#84BE84" rx="3" ry="3" style="stroke:#038048;stroke-width:1.0;"/><text fill="#000000" font-family="sans-serif" font-size="14" lengthAdjust="spacing" textLength="267.2373" x="26" y="115.8232">getUpdateMode(): ImportUpdateMode</text><ellipse cx="17" cy="128.7734" fill="#84BE84" rx="3" ry="3" style="stroke:#038048;stroke-width:1.0;"/><text fill="#000000" font-family="sans-serif" font-size="14" lengthAdjust="spacing" textLength="145.4688" x="26" y="132.1201">getProgress(): String</text></g></a><text fill="#888888" font-family="sans-serif" font-size="10" lengthAdjust="spacing" textLength="3.1787" x="147.4106" y="142.2822">&#160;</text><a href="https://github.com/talsma-ict/umldoclet" target="_top" title="https://github.com/talsma-ict/umldoclet" xlink:actuate="onRequest" xlink:href="https://github.com/talsma-ict/umldoclet" xlink:show="new" xlink:title="https://github.com/talsma-ict/umldoclet" xlink:type="simple"><text fill="#888888" font-family="sans-serif" font-size="10" lengthAdjust="spacing" textLength="82.3096" x="107.8452" y="153.9229">UMLDoclet 2.2.1</text></a><!--SRC=[bLDBRzf04BxdLqpJGnCrBEOHI50KAQ9Lauf8KO5B2OTbFTXRrZlkxZWHhVBVkxOfB_LINwpzPkRxvWa0y066bA-TJb869k1KUvW-Za3Q61Aqw2HZ33gJ2NfOe26R-DeHGHQSaWDQLYz5pg7FoSRQ9l1LlaZmL3Y5NfoSG2Kr-Sl-AlqU-s9TWfz86MGu6vxlfTIEMhr6EshtO2ADpoGy32TYmxQBQOksQ47WDbgXzO6oi36wAgsxNAhm6zMM2tX1vpNP41DjUCfI5LcMsdh8fMDVblHafEKorvO8-btHXxExyUWmj-Ywokq2xfoLHGpVw6UnBVTTxcGICZPoJGM3pv2bbRNDXwIjp4AxfC8n1b79ePEMB5RsLCS8cEMyXgL64_jZD92b5E0ALqPw3wStNl_2GQjx-v3bv7WY_UhPRi3eLfD8DAV5GgnqjWXZ_55O50cIHnTween6oo9c4heAHtSAOKh_7oPsyZ2RxHuYvSpCv_2xohdyFYR83_7P-G3AjJg0xnqkIyEOdJuoZJaiJMchgQldWSCqZmFqIF6UrmuxS7rob8IbzKTIRtLVRpol3Tvk8vP4eRwz0ihlVfsZ6scx6f898tn_zM_hj5n8eos66r0h6pGXsdg-rNBDFRsDrhETpLBct0-QpSqS56LDhewXeHKtYyp4zHKStSDyljdlBzj3AvUr4LqrEj4awWmwxK6dAwwxdSjU__Ao_ttscLLpEXdE_m00]--></g></svg>