<svg xmlns="http://www.w3.org/2000/svg" xmlns:xlink="http://www.w3.org/1999/xlink" contentStyleType="text/css" height="255px" preserveAspectRatio="none" style="width:412px;height:255px;background:#FFFFFF;" version="1.1" viewBox="0 0 412 255" width="412px" zoomAndPan="magnify"><defs/><g><!--class io.github.kimbongjune.geoserverclient.dto.featuretype.CreateFeatureTypeRequest.AttributeDef--><a href="CreateFeatureTypeRequest.AttributeDef.html" target="_top" title="CreateFeatureTypeRequest.AttributeDef.html" xlink:actuate="onRequest" xlink:href="CreateFeatureTypeRequest.AttributeDef.html" xlink:show="new" xlink:title="CreateFeatureTypeRequest.AttributeDef.html" xlink:type="simple"><g id="elem_io.github.kimbongjune.geoserverclient.dto.featuretype.CreateFeatureTypeRequest.AttributeDef"><rect codeLine="13" fill="#F1F1F1" height="143.7188" id="io.github.kimbongjune.geoserverclient.dto.featuretype.CreateFeatureTypeRequest.AttributeDef" rx="2.5" ry="2.5" style="stroke:#181818;stroke-width:0.5;" width="399.8848" x="6" y="86"/><ellipse cx="59.9561" cy="104.9688" fill="#ADD1B2" rx="11" ry="11" style="stroke:#181818;stroke-width:1.0;"/><path d="M62.9248,110.6094 Q62.3467,110.9063 61.7061,111.0469 Q61.0654,111.2031 60.3623,111.2031 Q57.8623,111.2031 56.5342,109.5625 Q55.2217,107.9063 55.2217,104.7813 Q55.2217,101.6563 56.5342,100 Q57.8623,98.3438 60.3623,98.3438 Q61.0654,98.3438 61.7061,98.5 Q62.3623,98.6563 62.9248,98.9531 L62.9248,101.6719 Q62.2998,101.0938 61.7061,100.8281 Q61.1123,100.5469 60.4873,100.5469 Q59.1436,100.5469 58.4561,101.625 Q57.7686,102.6875 57.7686,104.7813 Q57.7686,106.875 58.4561,107.9531 Q59.1436,109.0156 60.4873,109.0156 Q61.1123,109.0156 61.7061,108.75 Q62.2998,108.4688 62.9248,107.8906 L62.9248,110.6094 Z " fill="#000000"/><text fill="#000000" font-family="sans-serif" font-size="14" lengthAdjust="spacing" textLength="283.4727" x="80.4561" y="103.9951">CreateFeatureTypeRequest.AttributeDef</text><text fill="#000000" font-family="sans-serif" font-size="10" lengthAdjust="spacing" textLength="274.7168" x="84.834" y="116.5791">io.github.kimbongjune.geoserverclient.dto.featuretype</text><line style="stroke:#181818;stroke-width:0.5;" x1="7" x2="404.8848" y1="123.9375" y2="123.9375"/><ellipse cx="17" cy="137.5859" fill="#84BE84" rx="3" ry="3" style="stroke:#038048;stroke-width:1.0;"/><text fill="#000000" font-family="sans-serif" font-size="14" lengthAdjust="spacing" textLength="373.8848" x="26" y="140.9326">AttributeDef(String, String, Integer, Integer, Boolean)</text><ellipse cx="17" cy="153.8828" fill="#84BE84" rx="3" ry="3" style="stroke:#038048;stroke-width:1.0;"/><text fill="#000000" font-family="sans-serif" font-size="14" lengthAdjust="spacing" textLength="126.1641" x="26" y="157.2295">getName(): String</text><ellipse cx="17" cy="170.1797" fill="#84BE84" rx="3" ry="3" style="stroke:#038048;stroke-width:1.0;"/><text fill="#000000" font-family="sans-serif" font-size="14" lengthAdjust="spacing" textLength="137.7646" x="26" y="173.5264">getBinding(): String</text><ellipse cx="17" cy="186.4766" fill="#84BE84" rx="3" ry="3" style="stroke:#038048;stroke-width:1.0;"/><text fill="#000000" font-family="sans-serif" font-size="14" lengthAdjust="spacing" textLength="166.6191" x="26" y="189.8232">getMinOccurs(): Integer</text><ellipse cx="17" cy="202.7734" fill="#84BE84" rx="3" ry="3" style="stroke:#038048;stroke-width:1.0;"/><text fill="#000000" font-family="sans-serif" font-size="14" lengthAdjust="spacing" textLength="170.7207" x="26" y="206.1201">getMaxOccurs(): Integer</text><ellipse cx="17" cy="219.0703" fill="#84BE84" rx="3" ry="3" style="stroke:#038048;stroke-width:1.0;"/><text fill="#000000" font-family="sans-serif" font-size="14" lengthAdjust="spacing" textLength="151.8809" x="26" y="222.417">getNillable(): Boolean</text></g></a><!--class io.github.kimbongjune.geoserverclient.dto.featuretype.CreateFeatureTypeRequest--><a href="CreateFeatureTypeRequest.html" target="_top" title="CreateFeatureTypeRequest.html" xlink:actuate="onRequest" xlink:href="CreateFeatureTypeRequest.html" xlink:show="new" xlink:title="CreateFeatureTypeRequest.html" xlink:type="simple"><g id="elem_io.github.kimbongjune.geoserverclient.dto.featuretype.CreateFeatureTypeRequest"><rect codeLine="22" fill="#F1F1F1" height="37.9375" id="io.github.kimbongjune.geoserverclient.dto.featuretype.CreateFeatureTypeRequest" rx="2.5" ry="2.5" style="stroke:#181818;stroke-width:0.5;" width="306.7168" x="52.5" y="12"/><ellipse cx="67.5" cy="30.9688" fill="#ADD1B2" rx="11" ry="11" style="stroke:#181818;stroke-width:1.0;"/><path d="M70.4688,36.6094 Q69.8906,36.9063 69.25,37.0469 Q68.6094,37.2031 67.9063,37.2031 Q65.4063,37.2031 64.0781,35.5625 Q62.7656,33.9063 62.7656,30.7813 Q62.7656,27.6563 64.0781,26 Q65.4063,24.3438 67.9063,24.3438 Q68.6094,24.3438 69.25,24.5 Q69.9063,24.6563 70.4688,24.9531 L70.4688,27.6719 Q69.8438,27.0938 69.25,26.8281 Q68.6563,26.5469 68.0313,26.5469 Q66.6875,26.5469 66,27.625 Q65.3125,28.6875 65.3125,30.7813 Q65.3125,32.875 66,33.9531 Q66.6875,35.0156 68.0313,35.0156 Q68.6563,35.0156 69.25,34.75 Q69.8438,34.4688 70.4688,33.8906 L70.4688,36.6094 Z " fill="#000000"/><text fill="#000000" font-family="sans-serif" font-size="14" lengthAdjust="spacing" textLength="192.6367" x="122.54" y="29.9951">CreateFeatureTypeRequest</text><text fill="#000000" font-family="sans-serif" font-size="10" lengthAdjust="spacing" textLength="274.7168" x="81.5" y="42.5791">io.github.kimbongjune.geoserverclient.dto.featuretype</text></g></a><ellipse cx="206" cy="58.1761" fill="#FFFFFF" rx="8" ry="8" style="stroke:#181818;stroke-width:1.0;"/><line style="stroke:#181818;stroke-width:1.0;" x1="206" x2="206" y1="66.1761" y2="50.1761"/><line style="stroke:#181818;stroke-width:1.0;" x1="198" x2="214" y1="58.1761" y2="58.1761"/><path d="M206,66.1761 C206,75.9266 206,72.6424 206,85.8842 " fill="none" style="stroke:#181818;stroke-width:1.0;"/><text fill="#888888" font-family="sans-serif" font-size="10" lengthAdjust="spacing" textLength="3.1787" x="200.9106" y="233.2822">&#160;</text><a href="https://github.com/talsma-ict/umldoclet" target="_top" title="https://github.com/talsma-ict/umldoclet" xlink:actuate="onRequest" xlink:href="https://github.com/talsma-ict/umldoclet" xlink:show="new" xlink:title="https://github.com/talsma-ict/umldoclet" xlink:type="simple"><text fill="#888888" font-family="sans-serif" font-size="10" lengthAdjust="spacing" textLength="82.3096" x="161.3452" y="244.9229">UMLDoclet 2.2.1</text></a><!--SRC=[pLJRJXin47tdAwRqeOb8dDqGKeWGKWYzK0LQaV3Im8FZdUowUEsjFKkRLlnxlHT2G2sYLIjr7_RYCpvpPevt001UmCXaIolZX80CK28Td9-CWUi8OjHeEM44CkKnEfYZCZfsLI02poan5ioY_1B6MdIPqP7KCRpZrnoSoQr0npOse4mrlMN_mjqQ-tnPB1uPeP2WCMgkIUe6OR_T3Rfzc7BbKWx7eochsUxsT5cNXU2vbHIedQVCTOIsb3NCkF2FSOMqu1gjaqRxFK7DKvGgZ2OkjOECMt95IHyKrrHe3PdFtsCleJ6SZEzh2_PARIqOMitp2CxCvtnLxhFCyjWhLdnfSWAN8d7DAynvqPgdlbrSu0HzKaw-azfeBF54HWYOPhI4XKGLkOUhdYmnVhbS5uex1vlxJdx3GTWx65dqVNtjRxd5wJB3Conq4HiIMJdF2OzmSQ7h-E106XPBIl8vkvBft3lyATV8OZGEhM-NK18riOWCMrISv3atmNluHplPa_J1RFQaE9PGgYuluNlPYkBQMeSR4_-kunRSFeyrOOnsxUNG68LSD-y8OgHJxqwZEQYttOCEPNd4Vu6UIFrUYDow0gzpt0_WNnyFE9LAyRagqzVQIlpczzp-3mr-pDFAngh4lvnrgzt-boUrqhplQAdmOENamXZo8-ZkM1RNMqzXnr9VZOpo__lptP-ZvyNqKbAZ7vZYIgFtErX5tbJfEclvwbmNUZPBY38tw7JgOeL9ErHEphOKrCbJ5LKZyy7mz9slXk6RrLGk9bixs6rl1zDWUz3h3S8zrW_smh2_ixFxSVQAHETyEhhy0G00]--></g></svg>