<svg xmlns="http://www.w3.org/2000/svg" xmlns:xlink="http://www.w3.org/1999/xlink" contentStyleType="text/css" height="206px" preserveAspectRatio="none" style="width:314px;height:206px;background:#FFFFFF;" version="1.1" viewBox="0 0 314 206" width="314px" zoomAndPan="magnify"><defs/><g><!--class io.github.kimbongjune.geoserverclient.dto.workspace.UpdateWorkspaceRequest.Builder--><a href="UpdateWorkspaceRequest.Builder.html" target="_top" title="UpdateWorkspaceRequest.Builder.html" xlink:actuate="onRequest" xlink:href="UpdateWorkspaceRequest.Builder.html" xlink:show="new" xlink:title="UpdateWorkspaceRequest.Builder.html" xlink:type="simple"><g id="elem_io.github.kimbongjune.geoserverclient.dto.workspace.UpdateWorkspaceRequest.Builder"><rect codeLine="13" fill="#F1F1F1" height="94.8281" id="io.github.kimbongjune.geoserverclient.dto.workspace.UpdateWorkspaceRequest.Builder" rx="2.5" ry="2.5" style="stroke:#181818;stroke-width:0.5;" width="301.5898" x="6" y="86"/><ellipse cx="21" cy="104.9688" fill="#ADD1B2" rx="11" ry="11" style="stroke:#181818;stroke-width:1.0;"/><path d="M23.9688,110.6094 Q23.3906,110.9063 22.75,111.0469 Q22.1094,111.2031 21.4063,111.2031 Q18.9063,111.2031 17.5781,109.5625 Q16.2656,107.9063 16.2656,104.7813 Q16.2656,101.6563 17.5781,100 Q18.9063,98.3438 21.4063,98.3438 Q22.1094,98.3438 22.75,98.5 Q23.4063,98.6563 23.9688,98.9531 L23.9688,101.6719 Q23.3438,101.0938 22.75,100.8281 Q22.1563,100.5469 21.5313,100.5469 Q20.1875,100.5469 19.5,101.625 Q18.8125,102.6875 18.8125,104.7813 Q18.8125,106.875 19.5,107.9531 Q20.1875,109.0156 21.5313,109.0156 Q22.1563,109.0156 22.75,108.75 Q23.3438,108.4688 23.9688,107.8906 L23.9688,110.6094 Z " fill="#000000"/><text fill="#000000" font-family="sans-serif" font-size="14" lengthAdjust="spacing" textLength="239.5039" x="50.043" y="103.9951">UpdateWorkspaceRequest.Builder</text><text fill="#000000" font-family="sans-serif" font-size="10" lengthAdjust="spacing" textLength="269.5898" x="35" y="116.5791">io.github.kimbongjune.geoserverclient.dto.workspace</text><line style="stroke:#181818;stroke-width:0.5;" x1="7" x2="306.5898" y1="123.9375" y2="123.9375"/><ellipse cx="17" cy="137.5859" fill="#84BE84" rx="3" ry="3" style="stroke:#038048;stroke-width:1.0;"/><text fill="#000000" font-family="sans-serif" font-size="14" lengthAdjust="spacing" textLength="151.0879" x="26" y="140.9326">name(String): Builder</text><ellipse cx="17" cy="153.8828" fill="#84BE84" rx="3" ry="3" style="stroke:#038048;stroke-width:1.0;"/><text fill="#000000" font-family="sans-serif" font-size="14" lengthAdjust="spacing" textLength="181.501" x="26" y="157.2295">isolated(Boolean): Builder</text><ellipse cx="17" cy="170.1797" fill="#84BE84" rx="3" ry="3" style="stroke:#038048;stroke-width:1.0;"/><text fill="#000000" font-family="sans-serif" font-size="14" lengthAdjust="spacing" textLength="240.0576" x="26" y="173.5264">build(): UpdateWorkspaceRequest</text></g></a><!--class io.github.kimbongjune.geoserverclient.dto.workspace.UpdateWorkspaceRequest--><a href="UpdateWorkspaceRequest.html" target="_top" title="UpdateWorkspaceRequest.html" xlink:actuate="onRequest" xlink:href="UpdateWorkspaceRequest.html" xlink:show="new" xlink:title="UpdateWorkspaceRequest.html" xlink:type="simple"><g id="elem_io.github.kimbongjune.geoserverclient.dto.workspace.UpdateWorkspaceRequest"><rect codeLine="19" fill="#F1F1F1" height="37.9375" id="io.github.kimbongjune.geoserverclient.dto.workspace.UpdateWorkspaceRequest" rx="2.5" ry="2.5" style="stroke:#181818;stroke-width:0.5;" width="301.5898" x="6" y="12"/><ellipse cx="21" cy="30.9688" fill="#ADD1B2" rx="11" ry="11" style="stroke:#181818;stroke-width:1.0;"/><path d="M23.9688,36.6094 Q23.3906,36.9063 22.75,37.0469 Q22.1094,37.2031 21.4063,37.2031 Q18.9063,37.2031 17.5781,35.5625 Q16.2656,33.9063 16.2656,30.7813 Q16.2656,27.6563 17.5781,26 Q18.9063,24.3438 21.4063,24.3438 Q22.1094,24.3438 22.75,24.5 Q23.4063,24.6563 23.9688,24.9531 L23.9688,27.6719 Q23.3438,27.0938 22.75,26.8281 Q22.1563,26.5469 21.5313,26.5469 Q20.1875,26.5469 19.5,27.625 Q18.8125,28.6875 18.8125,30.7813 Q18.8125,32.875 19.5,33.9531 Q20.1875,35.0156 21.5313,35.0156 Q22.1563,35.0156 22.75,34.75 Q23.3438,34.4688 23.9688,33.8906 L23.9688,36.6094 Z " fill="#000000"/><text fill="#000000" font-family="sans-serif" font-size="14" lengthAdjust="spacing" textLength="185.541" x="77.0244" y="29.9951">UpdateWorkspaceRequest</text><text fill="#000000" font-family="sans-serif" font-size="10" lengthAdjust="spacing" textLength="269.5898" x="35" y="42.5791">io.github.kimbongjune.geoserverclient.dto.workspace</text></g></a><ellipse cx="157" cy="58.4332" fill="#FFFFFF" rx="8" ry="8" style="stroke:#181818;stroke-width:1.0;"/><line style="stroke:#181818;stroke-width:1.0;" x1="157" x2="157" y1="66.4332" y2="50.4332"/><line style="stroke:#181818;stroke-width:1.0;" x1="149" x2="165" y1="58.4332" y2="58.4332"/><path d="M157,66.4332 C157,76.4066 157,73.2207 157,85.7439 " fill="none" style="stroke:#181818;stroke-width:1.0;"/><text fill="#888888" font-family="sans-serif" font-size="10" lengthAdjust="spacing" textLength="3.1787" x="151.9106" y="184.2822">&#160;</text><a href="https://github.com/talsma-ict/umldoclet" target="_top" title="https://github.com/talsma-ict/umldoclet" xlink:actuate="onRequest" xlink:href="https://github.com/talsma-ict/umldoclet" xlink:show="new" xlink:title="https://github.com/talsma-ict/umldoclet" xlink:type="simple"><text fill="#888888" font-family="sans-serif" font-size="10" lengthAdjust="spacing" textLength="82.3096" x="112.3452" y="195.9229">UMLDoclet 2.2.1</text></a><!--SRC=[pLJRRjD047tlLmpbWLHjDiw54A8gKXiG5mK9jOcGIFkmMK_i9UiTipjk5L3_dRMTfg4gbK0WuHVBCxDdpfmT7m20Pp2cVErqaZ8m0QVQm-p31AID8K6BJZB6e3EPe8S56hA9hmiHPC4fEQ1bzQN8EVGvsLZR1DxBAmcU2gVGYxqzg5fDRz6lfTz1NwpBu2jI1XaQuuCTIfsetMzseauVfjBuJCAxyLHiqExET4H7j25W6wtG-W1Ps1XTHUiabogy9dNc2AxGUKqsd8asEEMeYYnBRJtaqh4lH_fefEMIQrk4_Ztn0XedvvEVkKKlAsv7SEAiB68uew_5TjmdkPD9O6pacWe6do5BA-kS3wIjp89SKk4vXgQIWvAMB5RvLCS8cEMyXgL64_lxqG2MKWXNSMMazx1_xFKt7BPxeraU1rq_aLjL-6TOic9nMcWJLBcmcy9ef4aacjDY8LOwMuIh_L9O50cIHnTqKaQZPH4pYUjRi7q8L_S7vyJZf60-Vxn0f9oPoqluNarSFeUbW8rpTc7T3eQmgRjBQq-cNA_6AP51QH-gMPI1HiWytBmglFaTaVyhSNyjQYrcFTXVx7VORFw3tQXf7djU6nnjxsv9n65lxlQXVDwkStGJRLTZCk5_UZfuE3ihtS5eYy6GrCfYkDXeMtbJjsljzDlqkh3pUSgS-s6hjPbHKTRYofcQMd6ho4nSMz8zSmfYrsRpPkjwfNCqeq6p6qsZxh3R6NQxOj3jF-_t1eFey_mrgzPiEhxy0G00]--></g></svg>