<svg xmlns="http://www.w3.org/2000/svg" xmlns:xlink="http://www.w3.org/1999/xlink" contentStyleType="text/css" height="304px" preserveAspectRatio="none" style="width:330px;height:304px;background:#FFFFFF;" version="1.1" viewBox="0 0 330 304" width="330px" zoomAndPan="magnify"><defs/><g><!--class io.github.kimbongjune.geoserverclient.dto.wmtslayer.UpdateWmtsLayerRequest.Builder--><a href="UpdateWmtsLayerRequest.Builder.html" target="_top" title="UpdateWmtsLayerRequest.Builder.html" xlink:actuate="onRequest" xlink:href="UpdateWmtsLayerRequest.Builder.html" xlink:show="new" xlink:title="UpdateWmtsLayerRequest.Builder.html" xlink:type="simple"><g id="elem_io.github.kimbongjune.geoserverclient.dto.wmtslayer.UpdateWmtsLayerRequest.Builder"><rect codeLine="13" fill="#F1F1F1" height="192.6094" id="io.github.kimbongjune.geoserverclient.dto.wmtslayer.UpdateWmtsLayerRequest.Builder" rx="2.5" ry="2.5" style="stroke:#181818;stroke-width:0.5;" width="317.1494" x="6" y="86"/><ellipse cx="28.6302" cy="104.9688" fill="#ADD1B2" rx="11" ry="11" style="stroke:#181818;stroke-width:1.0;"/><path d="M31.599,110.6094 Q31.0208,110.9063 30.3802,111.0469 Q29.7396,111.2031 29.0365,111.2031 Q26.5365,111.2031 25.2083,109.5625 Q23.8958,107.9063 23.8958,104.7813 Q23.8958,101.6563 25.2083,100 Q26.5365,98.3438 29.0365,98.3438 Q29.7396,98.3438 30.3802,98.5 Q31.0365,98.6563 31.599,98.9531 L31.599,101.6719 Q30.974,101.0938 30.3802,100.8281 Q29.7865,100.5469 29.1615,100.5469 Q27.8177,100.5469 27.1302,101.625 Q26.4427,102.6875 26.4427,104.7813 Q26.4427,106.875 27.1302,107.9531 Q27.8177,109.0156 29.1615,109.0156 Q29.7865,109.0156 30.3802,108.75 Q30.974,108.4688 31.599,107.8906 L31.599,110.6094 Z " fill="#000000"/><text fill="#000000" font-family="sans-serif" font-size="14" lengthAdjust="spacing" textLength="241.459" x="57.693" y="103.9951">UpdateWmtsLayerRequest.Builder</text><text fill="#000000" font-family="sans-serif" font-size="10" lengthAdjust="spacing" textLength="268.1934" x="44.3258" y="116.5791">io.github.kimbongjune.geoserverclient.dto.wmtslayer</text><line style="stroke:#181818;stroke-width:0.5;" x1="7" x2="322.1494" y1="123.9375" y2="123.9375"/><ellipse cx="17" cy="137.5859" fill="#84BE84" rx="3" ry="3" style="stroke:#038048;stroke-width:1.0;"/><text fill="#000000" font-family="sans-serif" font-size="14" lengthAdjust="spacing" textLength="138.7559" x="26" y="140.9326">title(String): Builder</text><ellipse cx="17" cy="153.8828" fill="#84BE84" rx="3" ry="3" style="stroke:#038048;stroke-width:1.0;"/><text fill="#000000" font-family="sans-serif" font-size="14" lengthAdjust="spacing" textLength="189.2256" x="26" y="157.2295">description(String): Builder</text><ellipse cx="17" cy="170.1797" fill="#84BE84" rx="3" ry="3" style="stroke:#038048;stroke-width:1.0;"/><text fill="#000000" font-family="sans-serif" font-size="14" lengthAdjust="spacing" textLength="200.0947" x="26" y="173.5264">abstractText(String): Builder</text><ellipse cx="17" cy="186.4766" fill="#84BE84" rx="3" ry="3" style="stroke:#038048;stroke-width:1.0;"/><text fill="#000000" font-family="sans-serif" font-size="14" lengthAdjust="spacing" textLength="181.918" x="26" y="189.8232">enabled(boolean): Builder</text><ellipse cx="17" cy="202.7734" fill="#84BE84" rx="3" ry="3" style="stroke:#038048;stroke-width:1.0;"/><text fill="#000000" font-family="sans-serif" font-size="14" lengthAdjust="spacing" textLength="199.8691" x="26" y="206.1201">advertised(boolean): Builder</text><ellipse cx="17" cy="219.0703" fill="#84BE84" rx="3" ry="3" style="stroke:#038048;stroke-width:1.0;"/><text fill="#000000" font-family="sans-serif" font-size="14" lengthAdjust="spacing" textLength="131.7285" x="26" y="222.417">srs(String): Builder</text><ellipse cx="17" cy="235.3672" fill="#84BE84" rx="3" ry="3" style="stroke:#038048;stroke-width:1.0;"/><text fill="#000000" font-family="sans-serif" font-size="14" lengthAdjust="spacing" textLength="291.1494" x="26" y="238.7139">projectionPolicy(ProjectionPolicy): Builder</text><ellipse cx="17" cy="251.6641" fill="#84BE84" rx="3" ry="3" style="stroke:#038048;stroke-width:1.0;"/><text fill="#000000" font-family="sans-serif" font-size="14" lengthAdjust="spacing" textLength="174.6924" x="26" y="255.0107">calculate(String): Builder</text><ellipse cx="17" cy="267.9609" fill="#84BE84" rx="3" ry="3" style="stroke:#038048;stroke-width:1.0;"/><text fill="#000000" font-family="sans-serif" font-size="14" lengthAdjust="spacing" textLength="242.0127" x="26" y="271.3076">build(): UpdateWmtsLayerRequest</text></g></a><!--class io.github.kimbongjune.geoserverclient.dto.wmtslayer.UpdateWmtsLayerRequest--><a href="UpdateWmtsLayerRequest.html" target="_top" title="UpdateWmtsLayerRequest.html" xlink:actuate="onRequest" xlink:href="UpdateWmtsLayerRequest.html" xlink:show="new" xlink:title="UpdateWmtsLayerRequest.html" xlink:type="simple"><g id="elem_io.github.kimbongjune.geoserverclient.dto.wmtslayer.UpdateWmtsLayerRequest"><rect codeLine="25" fill="#F1F1F1" height="37.9375" id="io.github.kimbongjune.geoserverclient.dto.wmtslayer.UpdateWmtsLayerRequest" rx="2.5" ry="2.5" style="stroke:#181818;stroke-width:0.5;" width="300.1934" x="14.5" y="12"/><ellipse cx="29.5" cy="30.9688" fill="#ADD1B2" rx="11" ry="11" style="stroke:#181818;stroke-width:1.0;"/><path d="M32.4688,36.6094 Q31.8906,36.9063 31.25,37.0469 Q30.6094,37.2031 29.9063,37.2031 Q27.4063,37.2031 26.0781,35.5625 Q24.7656,33.9063 24.7656,30.7813 Q24.7656,27.6563 26.0781,26 Q27.4063,24.3438 29.9063,24.3438 Q30.6094,24.3438 31.25,24.5 Q31.9063,24.6563 32.4688,24.9531 L32.4688,27.6719 Q31.8438,27.0938 31.25,26.8281 Q30.6563,26.5469 30.0313,26.5469 Q28.6875,26.5469 28,27.625 Q27.3125,28.6875 27.3125,30.7813 Q27.3125,32.875 28,33.9531 Q28.6875,35.0156 30.0313,35.0156 Q30.6563,35.0156 31.25,34.75 Q31.8438,34.4688 32.4688,33.8906 L32.4688,36.6094 Z " fill="#000000"/><text fill="#000000" font-family="sans-serif" font-size="14" lengthAdjust="spacing" textLength="187.4961" x="83.8486" y="29.9951">UpdateWmtsLayerRequest</text><text fill="#000000" font-family="sans-serif" font-size="10" lengthAdjust="spacing" textLength="268.1934" x="43.5" y="42.5791">io.github.kimbongjune.geoserverclient.dto.wmtslayer</text></g></a><ellipse cx="164.5" cy="58.0332" fill="#FFFFFF" rx="8" ry="8" style="stroke:#181818;stroke-width:1.0;"/><line style="stroke:#181818;stroke-width:1.0;" x1="164.5" x2="164.5" y1="66.0332" y2="50.0332"/><line style="stroke:#181818;stroke-width:1.0;" x1="156.5" x2="172.5" y1="58.0332" y2="58.0332"/><path d="M164.5,66.0332 C164.5,75.5855 164.5,72.1355 164.5,85.6916 " fill="none" style="stroke:#181818;stroke-width:1.0;"/><text fill="#888888" font-family="sans-serif" font-size="10" lengthAdjust="spacing" textLength="3.1787" x="159.4106" y="282.2822">&#160;</text><a href="https://github.com/talsma-ict/umldoclet" target="_top" title="https://github.com/talsma-ict/umldoclet" xlink:actuate="onRequest" xlink:href="https://github.com/talsma-ict/umldoclet" xlink:show="new" xlink:title="https://github.com/talsma-ict/umldoclet" xlink:type="simple"><text fill="#888888" font-family="sans-serif" font-size="10" lengthAdjust="spacing" textLength="82.3096" x="119.8452" y="293.9229">UMLDoclet 2.2.1</text></a><!--SRC=[pLJRJjj047tdAwRqeK6GZNCfXGWXqRJgHQc4856b1XxMwy5UME-wksEeM_7l7Tjfe8X6QjLAtHVBCxDdpbps000yWuahAg_JZ80SKAO3p3zCGTe4KhJe9M42EfSf1eZHE9k6DX11bfGv3-wY-LFEUmo5iucsARoNrnA2Axt283Ose4ar-u5-8yCzzBYgZQ-SCaZGcMpTepI8-hlTGJJOXPaq8PVmRZ8JIxIxEmCn47rWRACLsi2GfKtGDxIE2gduCsqzEt2DFcXd-KwqnAbBLSwIr3P08Js5kgHZ8otLNFk2yu_42-WSdKv_vXRjDznsuCXRMIPmuZwNgtAV55wcpDZ8ofK48KUILhQ-mAIjpBbTKk4fSb99t4dhB3R-J2S8c1TKmOL6auI7LWRB79iRkp8o1DWy2FehZlkZmtcHS5y_vXIcia9_WZKh4YzBRRWhPtOP61rg9r9DMHcBAvt7FDhBqg98qGNqt2TbD5eI2Jbnms2c1ji47jqVt1FhIS5YiJv0P9IRytFurbHSdstIPB1pIfxtRMiCoy0xVu91ULqGJtjDb8m3UQbeXbzeJHXQ6HjCEh5p1gLz52dXsac7zL71XpLf2kykKTMKZnqlSzKvVc1ux9AIHfM6cxS6EAuD7VOytkOcyFPtrkc_MgDVhq-xDcrXVp7VThVx3rv1I_CWK6NmS3Mx2-U8NyZTvjVdRLMWdsfxDN66bUFftkFUUQs3HbjawLLN5dcmqIhojatNkvTlcUlCBXOPKH76lTwoHkNo7ZKQtDMAUcLkabPy7yWmDxkLrJShVQyriXljTOVHB1gEXuFnS2JwqM3_-TvmT_HfyPfKRpwRd7y7]--></g></svg>