<svg xmlns="http://www.w3.org/2000/svg" xmlns:xlink="http://www.w3.org/1999/xlink" contentStyleType="text/css" height="353px" preserveAspectRatio="none" style="width:526px;height:353px;background:#FFFFFF;" version="1.1" viewBox="0 0 526 353" width="526px" zoomAndPan="magnify"><defs/><g><!--class io.github.kimbongjune.geoserverclient.api.service.ServiceManager--><a href="ServiceManager.html" target="_top" title="ServiceManager.html" xlink:actuate="onRequest" xlink:href="ServiceManager.html" xlink:show="new" xlink:title="ServiceManager.html" xlink:type="simple"><g id="elem_io.github.kimbongjune.geoserverclient.api.service.ServiceManager"><rect codeLine="13" fill="#F1F1F1" height="241.5" id="io.github.kimbongjune.geoserverclient.api.service.ServiceManager" rx="2.5" ry="2.5" style="stroke:#181818;stroke-width:0.5;" width="513.8467" x="6" y="86"/><ellipse cx="133.3022" cy="104.9688" fill="#ADD1B2" rx="11" ry="11" style="stroke:#181818;stroke-width:1.0;"/><path d="M136.271,110.6094 Q135.6929,110.9063 135.0522,111.0469 Q134.4116,111.2031 133.7085,111.2031 Q131.2085,111.2031 129.8804,109.5625 Q128.5679,107.9063 128.5679,104.7813 Q128.5679,101.6563 129.8804,100 Q131.2085,98.3438 133.7085,98.3438 Q134.4116,98.3438 135.0522,98.5 Q135.7085,98.6563 136.271,98.9531 L136.271,101.6719 Q135.646,101.0938 135.0522,100.8281 Q134.4585,100.5469 133.8335,100.5469 Q132.4897,100.5469 131.8022,101.625 Q131.1147,102.6875 131.1147,104.7813 Q131.1147,106.875 131.8022,107.9531 Q132.4897,109.0156 133.8335,109.0156 Q134.4585,109.0156 135.0522,108.75 Q135.646,108.4688 136.271,107.8906 L136.271,110.6094 Z " fill="#000000"/><text fill="#000000" font-family="sans-serif" font-size="14" lengthAdjust="spacing" textLength="113.1074" x="222.6196" y="103.9951">ServiceManager</text><text fill="#000000" font-family="sans-serif" font-size="10" lengthAdjust="spacing" textLength="250.7422" x="153.8022" y="116.5791">io.github.kimbongjune.geoserverclient.api.service</text><line style="stroke:#181818;stroke-width:0.5;" x1="7" x2="518.8467" y1="123.9375" y2="123.9375"/><ellipse cx="17" cy="137.5859" fill="#84BE84" rx="3" ry="3" style="stroke:#038048;stroke-width:1.0;"/><text fill="#000000" font-family="sans-serif" font-size="14" lengthAdjust="spacing" textLength="487.8467" x="26" y="140.9326">ServiceManager(GeoServerHttpClient, SerializerFactory, DataFormat)</text><ellipse cx="17" cy="153.8828" fill="#84BE84" rx="3" ry="3" style="stroke:#038048;stroke-width:1.0;"/><text fill="#000000" font-family="sans-serif" font-size="14" lengthAdjust="spacing" textLength="187.0176" x="26" y="157.2295">getWms(): ServiceSettings</text><ellipse cx="17" cy="170.1797" fill="#84BE84" rx="3" ry="3" style="stroke:#038048;stroke-width:1.0;"/><text fill="#000000" font-family="sans-serif" font-size="14" lengthAdjust="spacing" textLength="242.9834" x="26" y="173.5264">updateWms(ServiceSettings): void</text><ellipse cx="17" cy="186.4766" fill="#84BE84" rx="3" ry="3" style="stroke:#038048;stroke-width:1.0;"/><text fill="#000000" font-family="sans-serif" font-size="14" lengthAdjust="spacing" textLength="178.3086" x="26" y="189.8232">getWfs(): ServiceSettings</text><ellipse cx="17" cy="202.7734" fill="#84BE84" rx="3" ry="3" style="stroke:#038048;stroke-width:1.0;"/><text fill="#000000" font-family="sans-serif" font-size="14" lengthAdjust="spacing" textLength="234.2744" x="26" y="206.1201">updateWfs(ServiceSettings): void</text><ellipse cx="17" cy="219.0703" fill="#84BE84" rx="3" ry="3" style="stroke:#038048;stroke-width:1.0;"/><text fill="#000000" font-family="sans-serif" font-size="14" lengthAdjust="spacing" textLength="181.0771" x="26" y="222.417">getWcs(): ServiceSettings</text><ellipse cx="17" cy="235.3672" fill="#84BE84" rx="3" ry="3" style="stroke:#038048;stroke-width:1.0;"/><text fill="#000000" font-family="sans-serif" font-size="14" lengthAdjust="spacing" textLength="237.043" x="26" y="238.7139">updateWcs(ServiceSettings): void</text><ellipse cx="17" cy="251.6641" fill="#84BE84" rx="3" ry="3" style="stroke:#038048;stroke-width:1.0;"/><text fill="#000000" font-family="sans-serif" font-size="14" lengthAdjust="spacing" textLength="192.5068" x="26" y="255.0107">getWmts(): ServiceSettings</text><ellipse cx="17" cy="267.9609" fill="#84BE84" rx="3" ry="3" style="stroke:#038048;stroke-width:1.0;"/><text fill="#000000" font-family="sans-serif" font-size="14" lengthAdjust="spacing" textLength="248.4727" x="26" y="271.3076">updateWmts(ServiceSettings): void</text><ellipse cx="17" cy="284.2578" fill="#84BE84" rx="3" ry="3" style="stroke:#038048;stroke-width:1.0;"/><text fill="#000000" font-family="sans-serif" font-size="14" lengthAdjust="spacing" textLength="379.4697" x="26" y="287.6045">getWorkspaceSettings(String, String): ServiceSettings</text><ellipse cx="17" cy="300.5547" fill="#84BE84" rx="3" ry="3" style="stroke:#038048;stroke-width:1.0;"/><text fill="#000000" font-family="sans-serif" font-size="14" lengthAdjust="spacing" textLength="444.3359" x="26" y="303.9014">updateWorkspaceSettings(String, String, ServiceSettings): void</text><ellipse cx="17" cy="316.8516" fill="#84BE84" rx="3" ry="3" style="stroke:#038048;stroke-width:1.0;"/><text fill="#000000" font-family="sans-serif" font-size="14" lengthAdjust="spacing" textLength="321.0498" x="26" y="320.1982">deleteWorkspaceSettings(String, String): void</text></g></a><!--class io.github.kimbongjune.geoserverclient.api.AbstractManager--><a href="../AbstractManager.html" target="_top" title="../AbstractManager.html" xlink:actuate="onRequest" xlink:href="../AbstractManager.html" xlink:show="new" xlink:title="../AbstractManager.html" xlink:type="simple"><g id="elem_io.github.kimbongjune.geoserverclient.api.AbstractManager"><rect codeLine="28" fill="#F1F1F1" height="37.9375" id="io.github.kimbongjune.geoserverclient.api.AbstractManager" rx="2.5" ry="2.5" style="stroke:#181818;stroke-width:0.5;" width="243.7432" x="141" y="12"/><ellipse cx="156" cy="30.9688" fill="#A9DCDF" rx="11" ry="11" style="stroke:#181818;stroke-width:1.0;"/><path d="M156.1094,26.3125 L154.9531,31.3906 L157.2813,31.3906 L156.1094,26.3125 Z M154.625,24.0781 L157.6094,24.0781 L160.9688,36.4688 L158.5156,36.4688 L157.75,33.4063 L154.4688,33.4063 L153.7188,36.4688 L151.2813,36.4688 L154.625,24.0781 Z " fill="#000000"/><text fill="#000000" font-family="sans-serif" font-size="14" font-style="italic" lengthAdjust="spacing" textLength="120.1348" x="215.8042" y="29.9951">AbstractManager</text><text fill="#000000" font-family="sans-serif" font-size="10" font-style="italic" lengthAdjust="spacing" textLength="211.7432" x="170" y="42.5791">io.github.kimbongjune.geoserverclient.api</text></g></a><polygon fill="none" points="263,50.2922,257,68.2922,269,68.2922,263,50.2922" style="stroke:#181818;stroke-width:1.0;"/><path d="M263,68.2922 C263,77.7156 263,72.0916 263,85.7554 " fill="none" style="stroke:#181818;stroke-width:1.0;"/><text fill="#888888" font-family="sans-serif" font-size="10" lengthAdjust="spacing" textLength="3.1787" x="257.9106" y="331.2822">&#160;</text><a href="https://github.com/talsma-ict/umldoclet" target="_top" title="https://github.com/talsma-ict/umldoclet" xlink:actuate="onRequest" xlink:href="https://github.com/talsma-ict/umldoclet" xlink:show="new" xlink:title="https://github.com/talsma-ict/umldoclet" xlink:type="simple"><text fill="#888888" font-family="sans-serif" font-size="10" lengthAdjust="spacing" textLength="82.3096" x="218.3452" y="342.9229">UMLDoclet 2.2.1</text></a><!--SRC=[fLLjRn914FxUNp7M3z88nvLYfQHfGgXjDJGnGcCYxOTbRxXRkTizT-SmgFtlphq81KrwjVTbmxmyppEpEmC0m2iOcdHbLHWHa06Ab8ERwn487K286gqW340b8aG7CuoD3bqPY20oYem5Coz-IMCjkjJeGEaGFeYb06SoAz5vUtjGK4t-e7yNxW7wR9KRpusCaQ0nF7WWgUCV7hSwVkSO9Y9sYO3tmubNeMroEbx7EmJ6ZfL4xHWoqm7QGjOW5PAFKUbfmXAjKqPpZb_XvALAeqaexI0LbbnUqiTOQCgr7dhCt_NUGcCm7crhyqyARKqOM2so03wPRzcwt1Uf5I4hZiNAP0GkGH9Qb3x7ehL8k5r2uXYPL11tKXkDXJzI0G8cAQrWhZ0EtAwLmIB3vi8kO-4Sx9ywzGFxXzspCTebbtlDT27QMrqv_3Dbl51HbCsyXKfcV9LVCurUYCPn1bePAzJaYLHvheJO1xwe9sTvsm9WEjqsU14byTqT_2pKvz_hxO369Pfn0Nv5b0uBWYQmHOcOIx4NGdAxLaqu5oGkZ4q47MomGgJFYMiSzA527ICHlqct2SdIW5zU7hKJmabBeu9ji7aji7azC5aBJDO3IwXUdLGFpjX5zIBBeCQOB9_S-kAimVG8GXCUan4W3pJMKB9Eko-7GCmSMNuNVqt3e78yOnoUE0OxZFp-FQ-zOwnceDJ-_z2dlrgjPmzeAUBKqIh6i_LLp8qXPjWCQVvThLAq8wKNGnFpmdhP-xVt9b-_iTB86rykDFA5-El8-vAk_O2luhhLqsd44-_wxNPLaJH9cuhLtrAIsbaI1-NEtzd-tCfocr-k_rRorTpoUwqZV-8VzRlTViVtUYTlkhsJNgVxPVgEPFjcChpx3G00]--></g></svg>