<svg xmlns="http://www.w3.org/2000/svg" xmlns:xlink="http://www.w3.org/1999/xlink" contentStyleType="text/css" height="222px" preserveAspectRatio="none" style="width:281px;height:222px;background:#FFFFFF;" version="1.1" viewBox="0 0 281 222" width="281px" zoomAndPan="magnify"><defs/><g><!--class io.github.kimbongjune.geoserverclient.dto.gwc.GwcTruncateLayerRequest--><a href="GwcTruncateLayerRequest.html" target="_top" title="GwcTruncateLayerRequest.html" xlink:actuate="onRequest" xlink:href="GwcTruncateLayerRequest.html" xlink:show="new" xlink:title="GwcTruncateLayerRequest.html" xlink:type="simple"><g id="elem_io.github.kimbongjune.geoserverclient.dto.gwc.GwcTruncateLayerRequest"><rect codeLine="13" fill="#F1F1F1" height="111.125" id="io.github.kimbongjune.geoserverclient.dto.gwc.GwcTruncateLayerRequest" rx="2.5" ry="2.5" style="stroke:#181818;stroke-width:0.5;" width="268.0791" x="6" y="86"/><ellipse cx="21" cy="104.9688" fill="#ADD1B2" rx="11" ry="11" style="stroke:#181818;stroke-width:1.0;"/><path d="M23.9688,110.6094 Q23.3906,110.9063 22.75,111.0469 Q22.1094,111.2031 21.4063,111.2031 Q18.9063,111.2031 17.5781,109.5625 Q16.2656,107.9063 16.2656,104.7813 Q16.2656,101.6563 17.5781,100 Q18.9063,98.3438 21.4063,98.3438 Q22.1094,98.3438 22.75,98.5 Q23.4063,98.6563 23.9688,98.9531 L23.9688,101.6719 Q23.3438,101.0938 22.75,100.8281 Q22.1563,100.5469 21.5313,100.5469 Q20.1875,100.5469 19.5,101.625 Q18.8125,102.6875 18.8125,104.7813 Q18.8125,106.875 19.5,107.9531 Q20.1875,109.0156 21.5313,109.0156 Q22.1563,109.0156 22.75,108.75 Q23.3438,108.4688 23.9688,107.8906 L23.9688,110.6094 Z " fill="#000000"/><text fill="#000000" font-family="sans-serif" font-size="14" lengthAdjust="spacing" textLength="188.959" x="58.5601" y="103.9951">GwcTruncateLayerRequest</text><text fill="#000000" font-family="sans-serif" font-size="10" lengthAdjust="spacing" textLength="236.0791" x="35" y="116.5791">io.github.kimbongjune.geoserverclient.dto.gwc</text><line style="stroke:#181818;stroke-width:0.5;" x1="7" x2="273.0791" y1="123.9375" y2="123.9375"/><ellipse cx="17" cy="137.5859" fill="#84BE84" rx="3" ry="3" style="stroke:#038048;stroke-width:1.0;"/><text fill="#000000" font-family="sans-serif" font-size="14" lengthAdjust="spacing" textLength="199.8828" x="26" y="140.9326">GwcTruncateLayerRequest()</text><ellipse cx="17" cy="153.8828" fill="#84BE84" rx="3" ry="3" style="stroke:#038048;stroke-width:1.0;"/><text fill="#000000" font-family="sans-serif" font-size="14" lengthAdjust="spacing" textLength="241.6641" x="26" y="157.2295">GwcTruncateLayerRequest(String)</text><ellipse cx="17" cy="170.1797" fill="#84BE84" rx="3" ry="3" style="stroke:#038048;stroke-width:1.0;"/><text fill="#000000" font-family="sans-serif" font-size="14" lengthAdjust="spacing" textLength="165.1973" x="26" y="173.5264">getLayerName(): String</text><ellipse cx="17" cy="186.4766" fill="#84BE84" rx="3" ry="3" style="stroke:#038048;stroke-width:1.0;"/><text fill="#000000" font-family="sans-serif" font-size="14" lengthAdjust="spacing" textLength="193.2314" x="26" y="189.8232">setLayerName(String): void</text></g></a><!--class io.github.kimbongjune.geoserverclient.dto.gwc.GwcTruncateRequest--><a href="GwcTruncateRequest.html" target="_top" title="GwcTruncateRequest.html" xlink:actuate="onRequest" xlink:href="GwcTruncateRequest.html" xlink:show="new" xlink:title="GwcTruncateRequest.html" xlink:type="simple"><g id="elem_io.github.kimbongjune.geoserverclient.dto.gwc.GwcTruncateRequest"><rect codeLine="20" fill="#F1F1F1" height="37.9375" id="io.github.kimbongjune.geoserverclient.dto.gwc.GwcTruncateRequest" rx="2.5" ry="2.5" style="stroke:#181818;stroke-width:0.5;" width="268.0791" x="6" y="12"/><ellipse cx="21" cy="30.9688" fill="#B4A7E5" rx="11" ry="11" style="stroke:#181818;stroke-width:1.0;"/><path d="M16.9219,26.7344 L16.9219,24.5781 L24.3125,24.5781 L24.3125,26.7344 L21.8438,26.7344 L21.8438,34.8125 L24.3125,34.8125 L24.3125,36.9688 L16.9219,36.9688 L16.9219,34.8125 L19.3906,34.8125 L19.3906,26.7344 L16.9219,26.7344 Z " fill="#000000"/><text fill="#000000" font-family="sans-serif" font-size="14" font-style="italic" lengthAdjust="spacing" textLength="149.9258" x="78.0767" y="29.9951">GwcTruncateRequest</text><text fill="#000000" font-family="sans-serif" font-size="10" font-style="italic" lengthAdjust="spacing" textLength="236.0791" x="35" y="42.5791">io.github.kimbongjune.geoserverclient.dto.gwc</text></g></a><polygon fill="none" points="140,50.4055,134,68.4055,146,68.4055,140,50.4055" style="stroke:#181818;stroke-width:1.0;"/><path d="M140,68.4055 C140,78.321 140,73.1281 140,85.957 " fill="none" style="stroke:#181818;stroke-width:1.0;stroke-dasharray:7.0,7.0;"/><text fill="#888888" font-family="sans-serif" font-size="10" lengthAdjust="spacing" textLength="3.1787" x="134.9106" y="200.2822">&#160;</text><a href="https://github.com/talsma-ict/umldoclet" target="_top" title="https://github.com/talsma-ict/umldoclet" xlink:actuate="onRequest" xlink:href="https://github.com/talsma-ict/umldoclet" xlink:show="new" xlink:title="https://github.com/talsma-ict/umldoclet" xlink:type="simple"><text fill="#888888" font-family="sans-serif" font-size="10" lengthAdjust="spacing" textLength="82.3096" x="95.3452" y="211.9229">UMLDoclet 2.2.1</text></a><!--SRC=[nLJVJnD147xdhnZnmHBfzbegXOQGa6fGKus1ycBXORitlLlPsprtvqfEvNztxeUb48WnchWlbvlvPkQRRtO70E05J5nUUfsa1EI0KXtWuiCKf8qXGOjU4iQWCvbWW0KQPvFG015aGQdpu9RrdtBUOyYTZRLDuBrSIGYky0g3sDg2kjJiL_OR6JQoByhA-DefWmIToSu6fK7Kt-yEei4-pAG9cOHtavbeizt53CH0z85p6wtG1avPs1XzJUiabue_qyQp2olqGJlBCL6RfsfLEKjIsm2vz1IgbZuPQQdYsXTSVoX6q3avdzxd5XtMt7RXn5jPn73clXRhTf_bNYRCsCZI5GGXGv9MDhx0fAtCM2wfy1ovg2HMqZgBjJ_LCG9cEPMmr6ZYyD3AoLB7vjgkZ0m1je-2_eRZ_l3uz4RDV64LYpkL9Veph6ZHfMqHqR5s8j6K5WjnhRC5p_HBOL4aw09w5aWPZPP4J0oxKTl0q_gZ2F440vZFd_28b39pTGNVwuQgy_89P6Vdzv1pydm7Du09KWtuo9ftTiRG0ExyOTFVHezXvNHSOsuRdRKbz4kUsEDQ_rUP7rNulhXj4tzRuUY74F_cEZI4ZWAL1e_NmrWwnp9lt8Jgl2rpz5DjhoVEy4DvVl2uzw9wzaPRv4sZhYtoiuZMoDkcN6-ZNblhqixdAL4UnhrUsvPoMO_gbTFLYdf5Pk9crppOEYnhiqLEr-kiMWdTwA2x5ysYlV5mEEuVYb7_81gDHg-Yp_Ctf7eNiydLJm00]--></g></svg>