<svg xmlns="http://www.w3.org/2000/svg" xmlns:xlink="http://www.w3.org/1999/xlink" contentStyleType="text/css" height="353px" preserveAspectRatio="none" style="width:314px;height:353px;background:#FFFFFF;" version="1.1" viewBox="0 0 314 353" width="314px" zoomAndPan="magnify"><defs/><g><!--class io.github.kimbongjune.geoserverclient.dto.wmslayer.UpdateWmsLayerRequest--><a href="UpdateWmsLayerRequest.html" target="_top" title="UpdateWmsLayerRequest.html" xlink:actuate="onRequest" xlink:href="UpdateWmsLayerRequest.html" xlink:show="new" xlink:title="UpdateWmsLayerRequest.html" xlink:type="simple"><g id="elem_io.github.kimbongjune.geoserverclient.dto.wmslayer.UpdateWmsLayerRequest"><rect codeLine="13" fill="#F1F1F1" height="241.5" id="io.github.kimbongjune.geoserverclient.dto.wmslayer.UpdateWmsLayerRequest" rx="2.5" ry="2.5" style="stroke:#181818;stroke-width:0.5;" width="301.9463" x="6" y="12"/><ellipse cx="23.5532" cy="30.9688" fill="#ADD1B2" rx="11" ry="11" style="stroke:#181818;stroke-width:1.0;"/><path d="M26.522,36.6094 Q25.9438,36.9063 25.3032,37.0469 Q24.6626,37.2031 23.9595,37.2031 Q21.4595,37.2031 20.1313,35.5625 Q18.8188,33.9063 18.8188,30.7813 Q18.8188,27.6563 20.1313,26 Q21.4595,24.3438 23.9595,24.3438 Q24.6626,24.3438 25.3032,24.5 Q25.9595,24.6563 26.522,24.9531 L26.522,27.6719 Q25.897,27.0938 25.3032,26.8281 Q24.7095,26.5469 24.0845,26.5469 Q22.7407,26.5469 22.0532,27.625 Q21.3657,28.6875 21.3657,30.7813 Q21.3657,32.875 22.0532,33.9531 Q22.7407,35.0156 24.0845,35.0156 Q24.7095,35.0156 25.3032,34.75 Q25.897,34.4688 26.522,33.8906 L26.522,36.6094 Z " fill="#000000"/><text fill="#000000" font-family="sans-serif" font-size="14" lengthAdjust="spacing" textLength="182.0068" x="79.2534" y="29.9951">UpdateWmsLayerRequest</text><text fill="#000000" font-family="sans-serif" font-size="10" lengthAdjust="spacing" textLength="264.2725" x="38.1206" y="42.5791">io.github.kimbongjune.geoserverclient.dto.wmslayer</text><line style="stroke:#181818;stroke-width:0.5;" x1="7" x2="306.9463" y1="49.9375" y2="49.9375"/><ellipse cx="17" cy="63.5859" fill="#84BE84" rx="3" ry="3" style="stroke:#038048;stroke-width:1.0;"/><text fill="#000000" font-family="sans-serif" font-size="14" lengthAdjust="spacing" text-decoration="underline" textLength="118.3984" x="26" y="66.9326">builder(): Builder</text><ellipse cx="17" cy="79.8828" fill="#84BE84" rx="3" ry="3" style="stroke:#038048;stroke-width:1.0;"/><text fill="#000000" font-family="sans-serif" font-size="14" lengthAdjust="spacing" textLength="115.2949" x="26" y="83.2295">getTitle(): String</text><ellipse cx="17" cy="96.1797" fill="#84BE84" rx="3" ry="3" style="stroke:#038048;stroke-width:1.0;"/><text fill="#000000" font-family="sans-serif" font-size="14" lengthAdjust="spacing" textLength="164.5957" x="26" y="99.5264">getDescription(): String</text><ellipse cx="17" cy="112.4766" fill="#84BE84" rx="3" ry="3" style="stroke:#038048;stroke-width:1.0;"/><text fill="#000000" font-family="sans-serif" font-size="14" lengthAdjust="spacing" textLength="174.5693" x="26" y="115.8232">getAbstractText(): String</text><ellipse cx="17" cy="128.7734" fill="#84BE84" rx="3" ry="3" style="stroke:#038048;stroke-width:1.0;"/><text fill="#000000" font-family="sans-serif" font-size="14" lengthAdjust="spacing" textLength="156.3447" x="26" y="132.1201">getEnabled(): Boolean</text><ellipse cx="17" cy="145.0703" fill="#84BE84" rx="3" ry="3" style="stroke:#038048;stroke-width:1.0;"/><text fill="#000000" font-family="sans-serif" font-size="14" lengthAdjust="spacing" textLength="222.2432" x="26" y="148.417">getForcedRemoteStyle(): String</text><ellipse cx="17" cy="161.3672" fill="#84BE84" rx="3" ry="3" style="stroke:#038048;stroke-width:1.0;"/><text fill="#000000" font-family="sans-serif" font-size="14" lengthAdjust="spacing" textLength="200.3066" x="26" y="164.7139">getPreferredFormat(): String</text><ellipse cx="17" cy="177.6641" fill="#84BE84" rx="3" ry="3" style="stroke:#038048;stroke-width:1.0;"/><text fill="#000000" font-family="sans-serif" font-size="14" lengthAdjust="spacing" textLength="155.1963" x="26" y="181.0107">getMinScale(): Double</text><ellipse cx="17" cy="193.9609" fill="#84BE84" rx="3" ry="3" style="stroke:#038048;stroke-width:1.0;"/><text fill="#000000" font-family="sans-serif" font-size="14" lengthAdjust="spacing" textLength="159.2979" x="26" y="197.3076">getMaxScale(): Double</text><ellipse cx="17" cy="210.2578" fill="#84BE84" rx="3" ry="3" style="stroke:#038048;stroke-width:1.0;"/><text fill="#000000" font-family="sans-serif" font-size="14" lengthAdjust="spacing" textLength="275.9463" x="26" y="213.6045">getMetadataBBoxRespected(): Boolean</text><ellipse cx="17" cy="226.5547" fill="#84BE84" rx="3" ry="3" style="stroke:#038048;stroke-width:1.0;"/><text fill="#000000" font-family="sans-serif" font-size="14" lengthAdjust="spacing" textLength="245.4375" x="26" y="229.9014">getVendorParameters(): StringMap</text><ellipse cx="17" cy="242.8516" fill="#84BE84" rx="3" ry="3" style="stroke:#038048;stroke-width:1.0;"/><text fill="#000000" font-family="sans-serif" font-size="14" lengthAdjust="spacing" textLength="150.2471" x="26" y="246.1982">getCalculate(): String</text></g></a><!--class io.github.kimbongjune.geoserverclient.dto.wmslayer.UpdateWmsLayerRequest.Builder--><a href="UpdateWmsLayerRequest.Builder.html" target="_top" title="UpdateWmsLayerRequest.Builder.html" xlink:actuate="onRequest" xlink:href="UpdateWmsLayerRequest.Builder.html" xlink:show="new" xlink:title="UpdateWmsLayerRequest.Builder.html" xlink:type="simple"><g id="elem_io.github.kimbongjune.geoserverclient.dto.wmslayer.UpdateWmsLayerRequest.Builder"><rect codeLine="27" fill="#F1F1F1" height="37.9375" id="io.github.kimbongjune.geoserverclient.dto.wmslayer.UpdateWmsLayerRequest.Builder" rx="2.5" ry="2.5" style="stroke:#181818;stroke-width:0.5;" width="296.2725" x="9" y="290"/><ellipse cx="24" cy="308.9688" fill="#ADD1B2" rx="11" ry="11" style="stroke:#181818;stroke-width:1.0;"/><path d="M26.9688,314.6094 Q26.3906,314.9063 25.75,315.0469 Q25.1094,315.2031 24.4063,315.2031 Q21.9063,315.2031 20.5781,313.5625 Q19.2656,311.9063 19.2656,308.7813 Q19.2656,305.6563 20.5781,304 Q21.9063,302.3438 24.4063,302.3438 Q25.1094,302.3438 25.75,302.5 Q26.4063,302.6563 26.9688,302.9531 L26.9688,305.6719 Q26.3438,305.0938 25.75,304.8281 Q25.1563,304.5469 24.5313,304.5469 Q23.1875,304.5469 22.5,305.625 Q21.8125,306.6875 21.8125,308.7813 Q21.8125,310.875 22.5,311.9531 Q23.1875,313.0156 24.5313,313.0156 Q25.1563,313.0156 25.75,312.75 Q26.3438,312.4688 26.9688,311.8906 L26.9688,314.6094 Z " fill="#000000"/><text fill="#000000" font-family="sans-serif" font-size="14" lengthAdjust="spacing" textLength="235.9697" x="52.1514" y="307.9951">UpdateWmsLayerRequest.Builder</text><text fill="#000000" font-family="sans-serif" font-size="10" lengthAdjust="spacing" textLength="264.2725" x="38" y="320.5791">io.github.kimbongjune.geoserverclient.dto.wmslayer</text></g></a><ellipse cx="157" cy="262.3745" fill="#FFFFFF" rx="8" ry="8" style="stroke:#181818;stroke-width:1.0;"/><line style="stroke:#181818;stroke-width:1.0;" x1="157" x2="157" y1="270.3745" y2="254.3745"/><line style="stroke:#181818;stroke-width:1.0;" x1="149" x2="165" y1="262.3745" y2="262.3745"/><path d="M157,270.3745 C157,283.9299 157,280.2113 157,289.5899 " fill="none" style="stroke:#181818;stroke-width:1.0;"/><text fill="#888888" font-family="sans-serif" font-size="10" lengthAdjust="spacing" textLength="3.1787" x="151.9106" y="331.2822">&#160;</text><a href="https://github.com/talsma-ict/umldoclet" target="_top" title="https://github.com/talsma-ict/umldoclet" xlink:actuate="onRequest" xlink:href="https://github.com/talsma-ict/umldoclet" xlink:show="new" xlink:title="https://github.com/talsma-ict/umldoclet" xlink:type="simple"><text fill="#888888" font-family="sans-serif" font-size="10" lengthAdjust="spacing" textLength="82.3096" x="112.3452" y="342.9229">UMLDoclet 2.2.1</text></a><!--SRC=[pLNRJXj137tdArpwK11aSscuHGW90hqfI8Y4LchWmParcocpCziPBv0Y_htUtH088bKhyT1zsSqSZtri7pi00E-WwxA9rycOWHtmM0SuE-u1sXWIikIHAGQTOa81HcISJK9bI80vZvq7Trd-Kivx2fcpiRO9VC5hXE1ohoX4IqjGXXeyUB_1yCJxQ58S7ZfbY66bk_g4KglHtAor6grD6A09ASBdxY2QUdkyqufQKHF4jz6AR12NkOt9bxJsCrJowbN8EboJ3zfPkTEO-YbILSuoQXiWGy-XIEd4eEM2QpEI-Ere2rRs-xrvResTajiwx7kBUGodxcS-I_TDvZ4HnWOdBcS8AJ5QhB0Wf2scKYvKr2S9YYoLjCvIYOzrJ41fnXEur6JYyFnKd8sT79Vdoc08iBmRz2_gDDjxPraiTVsMXXvEo9zIGOhFxHHlx6aN9Ph7-IYwqkb8EleZjnGbv09vAOyocYn7CRle9WscyB4Cqh1_lnQzo0I6mnVFep6dvk82xigaYkSkCB9Mzx0sohMHZgwiTk2W-fmPhIN40ys62h3FNjGtXnrIK5vdB4rVOB4_2knHyO1kUO79aSMHeRYCxvmXj7Fm1oSwZqyfTKnzdYpaSkBfacHCOhcGug9Wnzhs5LPE3bqkWUTXlFqZB3gJwkB1WRiz5OMHuiN4lvADdJyH_OcYP38U6HrZDcVPHQDo8rrxHlh-xoKOJLlt_qZnWT52IKxngJIhSNkrELYhrLuzauhYRYX4k3ThuAKJOVedarKydoOP-PwsLrrdPFcytNuPFIjMgT6MP7khAqlIvyRCikh-Rlr9l6ciSpiSZfcpqAdNfnagbzQvNECrhRYUfoQkzlUpJIw5hZRpnzbVHB5cQutjMlFzeB7PsMXsDhQZTcjhPwUrqTxuFZnYLJyRT2z-0m00]--></g></svg>